<svg xmlns="http://www.w3.org/2000/svg" viewBox="0 0 119.55 45.4"><defs><style>.cls-1{fill:#329359;}</style></defs><title>Asset 1</title><g id="Layer_2" data-name="Layer 2"><g id="Layer_1-2" data-name="Layer 1"><path class="cls-1" d="M24.65,7.9,19.7,31.1a9.32,9.32,0,0,0,3.77-2.35A12.42,12.42,0,0,0,26,24h2.1a17,17,0,0,1-1.78,4.15,11.78,11.78,0,0,1-2.22,2.7,10.18,10.18,0,0,1-2.45,1.62,13.82,13.82,0,0,1-2.4.88l-.75,3.6a13.23,13.23,0,0,1-1.58,4.35,9.33,9.33,0,0,1-2.25,2.58,7,7,0,0,1-2.57,1.25,11.47,11.47,0,0,1-2.6.32,6.54,6.54,0,0,1-3.95-1.2A4.22,4.22,0,0,1,3.9,40.55a5.09,5.09,0,0,1,.75-2.75,8,8,0,0,1,1.92-2.1A12.58,12.58,0,0,1,9.2,34.17c1-.41,1.92-.77,2.85-1.07L13,28.85a11.59,11.59,0,0,1-2.62,2.35,6.64,6.64,0,0,1-3.73,1,7.34,7.34,0,0,1-2.48-.42A5.88,5.88,0,0,1,2.05,30.4a6.66,6.66,0,0,1-1.5-2.48A11.08,11.08,0,0,1,0,24.15a18.38,18.38,0,0,1,.35-3.42,21.44,21.44,0,0,1,1-3.68A20.89,20.89,0,0,1,3.15,13.5a13.67,13.67,0,0,1,2.5-3A12,12,0,0,1,8.88,8.42a9.9,9.9,0,0,1,4-.77,9.76,9.76,0,0,1,1.28.08,3.82,3.82,0,0,1,1.25.35,3.09,3.09,0,0,1,1,.77,2.86,2.86,0,0,1,.57,1.4l.5-2.35Zm-18,32A1.81,1.81,0,0,0,7.07,41a1.52,1.52,0,0,0,1.28.55A2.15,2.15,0,0,0,10,40.4a9.18,9.18,0,0,0,1.3-3.35l.3-1.45c-.63.23-1.25.49-1.85.78a7.88,7.88,0,0,0-1.57.95,4.32,4.32,0,0,0-1.08,1.15A2.44,2.44,0,0,0,6.65,39.85Zm7.75-29.1a3.91,3.91,0,0,0-2.9,1.38,12.07,12.07,0,0,0-2.2,3.32A20.67,20.67,0,0,0,7.9,19.6a17.91,17.91,0,0,0-.5,3.85,7,7,0,0,0,.27,2.22,3.19,3.19,0,0,0,.65,1.16,1.51,1.51,0,0,0,.81.45,4.4,4.4,0,0,0,.77.07,4.2,4.2,0,0,0,2.48-1.1A5.65,5.65,0,0,0,14.25,23l2.2-10.35A2.93,2.93,0,0,0,16,11.45,1.67,1.67,0,0,0,14.4,10.75Z"/><path class="cls-1" d="M36.6,7.9l-.7,3.15a19.62,19.62,0,0,1,3-2.4,5.72,5.72,0,0,1,3.08-1A3,3,0,0,1,44.57,8.8a4.15,4.15,0,0,1,.88,2.6,4,4,0,0,1-.23,1.3,3.64,3.64,0,0,1-.67,1.18,3.47,3.47,0,0,1-1.13.85,3.67,3.67,0,0,1-1.57.32,1.71,1.71,0,0,1-1.43-.5,3,3,0,0,1-.52-1.07c-.1-.39-.19-.75-.28-1.08a.61.61,0,0,0-.67-.5,3.25,3.25,0,0,0-1.8.55A15.38,15.38,0,0,0,35.3,13.9l-4,19H24.1l5.3-25Z"/><path class="cls-1" d="M51.6,24.8c0,1.7.3,2.83.9,3.37a3.83,3.83,0,0,0,2.7.83,8.42,8.42,0,0,0,2.7-.4,10.11,10.11,0,0,0,2.25-1.07,12.49,12.49,0,0,0,2-1.61c.63-.61,1.27-1.27,1.9-2h1.7a28.37,28.37,0,0,1-2.4,3.4A18.51,18.51,0,0,1,60.3,30.3a15,15,0,0,1-3.75,2.1,12.49,12.49,0,0,1-4.55.8,8.43,8.43,0,0,1-5.71-1.85c-1.43-1.23-2.14-3.27-2.14-6.1a20.79,20.79,0,0,1,.3-3.3,27.18,27.18,0,0,1,.92-3.8,21,21,0,0,1,1.68-3.82A15.39,15.39,0,0,1,49.6,11a11.72,11.72,0,0,1,3.5-2.4,11,11,0,0,1,4.55-.9,7.77,7.77,0,0,1,2.72.4,4.19,4.19,0,0,1,1.7,1.08,3.49,3.49,0,0,1,.85,1.52,7,7,0,0,1,.23,1.8,8.56,8.56,0,0,1-.95,3.95,10.57,10.57,0,0,1-2.54,3.23A12.93,12.93,0,0,1,56,21.83a14,14,0,0,1-4.3,1c0,.37-.06.72-.08,1.05S51.6,24.5,51.6,24.8Zm7.7-12.41A3.24,3.24,0,0,0,59,10.9a1,1,0,0,0-1-.55,2.64,2.64,0,0,0-1.85.9,10.17,10.17,0,0,0-1.7,2.31,20.36,20.36,0,0,0-1.43,3.21,30.56,30.56,0,0,0-1,3.63,6.85,6.85,0,0,0,2.77-.8,8.31,8.31,0,0,0,3.9-4.3A7.52,7.52,0,0,0,59.3,12.39Z"/><path class="cls-1" d="M70.8,24.8c0,1.7.3,2.83.9,3.37a3.83,3.83,0,0,0,2.7.83,8.42,8.42,0,0,0,2.7-.4,10.11,10.11,0,0,0,2.25-1.07,13,13,0,0,0,2-1.61c.63-.61,1.26-1.27,1.9-2H85a28.37,28.37,0,0,1-2.4,3.4,18.51,18.51,0,0,1-3,2.95,15.31,15.31,0,0,1-3.75,2.1,12.53,12.53,0,0,1-4.55.8,8.43,8.43,0,0,1-5.71-1.85c-1.43-1.23-2.14-3.27-2.14-6.1a20.79,20.79,0,0,1,.3-3.3,27.18,27.18,0,0,1,.92-3.8,21,21,0,0,1,1.68-3.82A15.39,15.39,0,0,1,68.8,11a11.59,11.59,0,0,1,3.5-2.4,11,11,0,0,1,4.55-.9,7.77,7.77,0,0,1,2.72.4,4.19,4.19,0,0,1,1.7,1.08,3.49,3.49,0,0,1,.85,1.52,7,7,0,0,1,.23,1.8,8.56,8.56,0,0,1-.95,3.95,10.73,10.73,0,0,1-2.54,3.23,12.93,12.93,0,0,1-3.66,2.2,14,14,0,0,1-4.3,1c0,.37-.06.72-.08,1.05S70.8,24.5,70.8,24.8Zm7.7-12.41a3.24,3.24,0,0,0-.28-1.49,1,1,0,0,0-1-.55,2.62,2.62,0,0,0-1.85.9,10.17,10.17,0,0,0-1.7,2.31,20.36,20.36,0,0,0-1.43,3.21,30.56,30.56,0,0,0-1,3.63A6.89,6.89,0,0,0,74,19.6a8.31,8.31,0,0,0,3.9-4.3A7.52,7.52,0,0,0,78.5,12.39Z"/><path class="cls-1" d="M95.5,0,93.8,7.9h3l-.4,2h-3l-3.2,15a6.67,6.67,0,0,0-.2,1.6A1.75,1.75,0,0,0,90.5,28a2.44,2.44,0,0,0,1.55.4,3.81,3.81,0,0,0,2.7-1.25A7.21,7.21,0,0,0,96.55,24h2.1a17.45,17.45,0,0,1-2.45,4.88,12.88,12.88,0,0,1-2.85,2.8,8.27,8.27,0,0,1-2.83,1.27,11.34,11.34,0,0,1-2.37.3,5.4,5.4,0,0,1-3.8-1.42c-1-1-1.55-2.48-1.55-4.58A16,16,0,0,1,83.2,24l3-14H84.55l.4-2H86.6L88.1,1Z"/><path class="cls-1" d="M107.15,7.9l-3.6,17a5.16,5.16,0,0,0-.15,1.25,3.36,3.36,0,0,0,.32,1.52,1.18,1.18,0,0,0,1.18.68,3.06,3.06,0,0,0,2.45-1.25A9.1,9.1,0,0,0,108.9,24l3.4-16h7.25l-6.1,29a13.23,13.23,0,0,1-1.58,4.35,9,9,0,0,1-2.3,2.58A7.58,7.58,0,0,1,107,45.08a11.47,11.47,0,0,1-2.6.32,6.47,6.47,0,0,1-2.2-.37,5.67,5.67,0,0,1-1.88-1.11A5.45,5.45,0,0,1,99,42.2a4.77,4.77,0,0,1-.5-2.2,5.93,5.93,0,0,1,.67-3A6.14,6.14,0,0,1,101,35a11.62,11.62,0,0,1,2.75-1.4c1-.39,2.18-.76,3.38-1.13l.5-2.2a7.51,7.51,0,0,1-3.2,2.37,9.17,9.17,0,0,1-2.9.53,5.4,5.4,0,0,1-3.8-1.42c-1-1-1.55-2.48-1.55-4.58a16,16,0,0,1,.4-3.25l3.4-16Zm-6,31.4a1.56,1.56,0,0,0,.57,1.1,2,2,0,0,0,1.43.55,2.45,2.45,0,0,0,1.6-.82,6.39,6.39,0,0,0,1.35-3.08l.6-2.95a19,19,0,0,0-2.2.88,7.78,7.78,0,0,0-1.75,1.1,4.81,4.81,0,0,0-1.18,1.42A3.79,3.79,0,0,0,101.2,39.3Z"/></g></g></svg>