<svg xmlns="http://www.w3.org/2000/svg" viewBox="0 0 194.96 63.19"><defs><style>.cls-1{fill:#232020;}.cls-2{fill:#fabe41;}.cls-2,.cls-4,.cls-5,.cls-6{stroke:#010101;stroke-width:0.2px;}.cls-2,.cls-4,.cls-5,.cls-6,.cls-9{stroke-miterlimit:10;}.cls-3,.cls-9{fill:#fcbf43;}.cls-3{opacity:0.37;}.cls-4{fill:#465daa;}.cls-5,.cls-7{fill:none;}.cls-6{fill:#fff;}.cls-8{fill:#dba53d;}.cls-9{stroke:#231f20;stroke-width:0.5px;}</style></defs><title>Asset 1</title><g id="Layer_2" data-name="Layer 2"><g id="Layer_1-2" data-name="Layer 1"><rect class="cls-1" x="18.06" y="21.72" width="0.26" height="15.06" transform="translate(-7.92 6.79) rotate(-17.42)"/><rect class="cls-1" x="22.96" y="29.37" width="14.18" height="0.26" transform="translate(-5.99 51.29) rotate(-75.63)"/><rect class="cls-1" x="21.52" y="25.41" width="0.26" height="11.04" transform="translate(-4.1 3.32) rotate(-8.02)"/><rect class="cls-1" x="20.81" y="30.8" width="10.98" height="0.26" transform="translate(-6.85 54.37) rotate(-84.9)"/><path class="cls-2" d="M28.62,34.5h-8.7a.83.83,0,0,0-.82.84h0a.84.84,0,0,0,.82.85h0a2.2,2.2,0,0,0-.15.77v1.89A2.09,2.09,0,0,0,21.84,41h4.89a2.09,2.09,0,0,0,2.05-2.12V37a2.29,2.29,0,0,0-.14-.78.82.82,0,0,0,.8-.84h0A.83.83,0,0,0,28.62,34.5Z"/><path class="cls-3" d="M42.86,13.45a5.07,5.07,0,0,0-1.51.24,6.45,6.45,0,0,0-9-5.26c0-.14,0-.29,0-.44A7.4,7.4,0,0,0,18,5.73a5,5,0,0,0-6.44,2.89A4.87,4.87,0,0,0,9,7.91a5,5,0,0,0-5,5,5.07,5.07,0,0,0,.37,1.87,6.67,6.67,0,1,0,7.36,10.59,9,9,0,0,0,5.9,2.18A9.16,9.16,0,0,0,20.74,27a8.14,8.14,0,0,0,12.49-1.74,4.9,4.9,0,0,0,2.65.77,5,5,0,0,0,4.65-3.17,4.93,4.93,0,0,0,2.33.58,5,5,0,0,0,0-10Z"/><path class="cls-4" d="M48.54,17.54a5,5,0,0,1-7.31,4,5,5,0,0,1-4.64,3.17,4.93,4.93,0,0,1-2.66-.77,8.13,8.13,0,0,1-12.48,1.74,9.18,9.18,0,0,1-3.12.55,9,9,0,0,1-5.89-2.17A6.67,6.67,0,0,1,.72,20.13a6.66,6.66,0,0,1,4.35-5.84,5.79,5.79,0,0,1-.23-.74A6.59,6.59,0,0,1,4.73,12a5,5,0,0,1,7.52-3.87,5,5,0,0,1,4.66-3.21,5.06,5.06,0,0,1,1.78.33A7.39,7.39,0,0,1,33.11,7h0v.1h0c0,.13,0,.26,0,.38s0,.3,0,.45a6.46,6.46,0,0,1,9,5.25,5,5,0,0,1,6.48,4.35Z"/><path class="cls-5" d="M47.9,15.48a5,5,0,0,1-4.72,3.37,4.93,4.93,0,0,1-2.33-.58,5,5,0,0,1-4.65,3.17,4.87,4.87,0,0,1-2.65-.77,8.13,8.13,0,0,1-12.48,1.74A9.26,9.26,0,0,1,18,23a9.09,9.09,0,0,1-5.9-2.17A6.66,6.66,0,0,1,.87,19.09a6.06,6.06,0,0,0-.15,1,6.67,6.67,0,0,0,11.72,3.93,9,9,0,0,0,5.89,2.17,9.18,9.18,0,0,0,3.12-.55,8.13,8.13,0,0,0,12.48-1.74,4.93,4.93,0,0,0,2.66.77,5,5,0,0,0,4.64-3.17,5,5,0,0,0,7.31-4A5,5,0,0,0,47.9,15.48Z"/><path class="cls-6" d="M7,23.12a6.65,6.65,0,0,0,5.06-2.33A9.09,9.09,0,0,0,18,23a9.26,9.26,0,0,0,3.12-.55,8.13,8.13,0,0,0,12.48-1.74,4.87,4.87,0,0,0,2.65.77,5,5,0,0,0,4.65-3.17,4.93,4.93,0,0,0,2.33.58,5,5,0,0,0,4.72-3.37,5,5,0,0,0-5.84-2.29,6.46,6.46,0,0,0-9-5.25c0-.15,0-.29,0-.45s0-.25,0-.38h0V7h0A7.39,7.39,0,0,0,18.69,5.24a5.06,5.06,0,0,0-1.78-.33,5,5,0,0,0-4.66,3.21A5,5,0,0,0,4.73,12a6.59,6.59,0,0,0,.11,1.56,5.79,5.79,0,0,0,.23.74,6.67,6.67,0,0,0-4.2,4.8A6.67,6.67,0,0,0,7,23.12Z"/><path class="cls-7" d="M26.78,39.93a9.39,9.39,0,0,0,0-2.06,6.17,6.17,0,0,0-.21-1.8c1-1,0-1.53,0-1.53l.07,0H19.92a.83.83,0,0,0-.82.84h0a.84.84,0,0,0,.82.85h0a2.2,2.2,0,0,0-.15.77v1.89A2.09,2.09,0,0,0,21.84,41h3.87A1.14,1.14,0,0,0,26.78,39.93Z"/><path class="cls-8" d="M26.62,36.07a6.17,6.17,0,0,1,.21,1.8,9.39,9.39,0,0,1,0,2.06,1.14,1.14,0,0,1-1.07,1h1a2.09,2.09,0,0,0,2.05-2.12V37a2.29,2.29,0,0,0-.14-.78.82.82,0,0,0,.8-.84h0a.83.83,0,0,0-.82-.84H26.69l-.07,0S27.6,35.09,26.62,36.07Z"/><path class="cls-5" d="M28.62,34.5h-8.7a.83.83,0,0,0-.82.84h0a.84.84,0,0,0,.82.85h0a2.2,2.2,0,0,0-.15.77v1.89A2.09,2.09,0,0,0,21.84,41h4.89a2.09,2.09,0,0,0,2.05-2.12V37a2.29,2.29,0,0,0-.14-.78.82.82,0,0,0,.8-.84h0A.83.83,0,0,0,28.62,34.5Z"/><path class="cls-9" d="M32.19,34.94a16.86,16.86,0,0,0-3-1.2c-1.21-.37-2.71-.72-4.5-1.1-1.94-.4-3.57-.7-4.89-.83a11,11,0,0,0-3.36.11,4,4,0,0,0-2.56,1.49A4.81,4.81,0,0,0,13,36.29a5.86,5.86,0,0,0,1.07,3.53,6.43,6.43,0,0,0,3.64,2.23,9.94,9.94,0,0,0,1.51.28,15.76,15.76,0,0,0,1.68.09l.67,0c-.26.47-.51,1-.76,1.51A25.72,25.72,0,0,0,19.64,47a27.86,27.86,0,0,0-.83,3.26,16.05,16.05,0,0,0-.29,3,7.3,7.3,0,0,0,1.34,4.59,6.56,6.56,0,0,0,4,2.34c2,.43,3.37.16,4.22-.75a6.08,6.08,0,0,0,1.27-4.28,20.72,20.72,0,0,0-.21-2.66c-.13-1.06-.33-2.19-.59-3.39s-.59-2.42-1-3.63c-.24-.73-.49-1.41-.76-2.06a16,16,0,0,0,1.75.74,13.32,13.32,0,0,0,2.13.54,3.8,3.8,0,0,0,3.52-.89,4.76,4.76,0,0,0,1.18-3.44,7,7,0,0,0-.65-3A5.73,5.73,0,0,0,32.19,34.94Z"/><path class="cls-9" d="M48.06,39.22A3.94,3.94,0,0,0,45,40.58a9.21,9.21,0,0,0-1.75,3,8.64,8.64,0,0,0-.32-1.94,5.21,5.21,0,0,0-1.14-2,3.23,3.23,0,0,0-5.12.68c-.72,1.21-1.08,3.25-1.08,6.14,0,1.12,0,2.4.11,3.84s.18,2.84.32,4.2.27,2.51.43,3.41A5.61,5.61,0,0,0,38,61.22a5,5,0,0,0,3.12,1.22,4.31,4.31,0,0,0,3.14-.78,4,4,0,0,0,1.12-3.24,16.39,16.39,0,0,0-.19-2.4c-.12-.88-.26-1.76-.41-2.65s-.29-1.71-.41-2.47A12.4,12.4,0,0,1,44.21,49a3.93,3.93,0,0,1,.23-1.5.71.71,0,0,1,.71-.52c.22,0,.39.18.5.49a4.94,4.94,0,0,1,.09,1.74,3.71,3.71,0,0,0,.58,2.58,2.71,2.71,0,0,0,2.19.9,3.7,3.7,0,0,0,3.12-1.49c.78-1,1.17-2.78,1.17-5.29a9.07,9.07,0,0,0-1.15-4.78A4,4,0,0,0,48.06,39.22Z"/><path class="cls-9" d="M74.58,43.44a6.65,6.65,0,0,0-3.77-3.8,14,14,0,0,0-6.35-.81,18.77,18.77,0,0,0-5.21,1.09,11.25,11.25,0,0,0-3.87,2.27,4.18,4.18,0,0,0-1.45,3.1,2.68,2.68,0,0,0,.84,2.05,3.1,3.1,0,0,0,2.33.74,8.66,8.66,0,0,0,2.2-.37c.73-.22,1.43-.44,2.11-.67a7.73,7.73,0,0,1,1.93-.4,3.8,3.8,0,0,1,3.17,1,5,5,0,0,1,1,3.09,7.65,7.65,0,0,0-1.71-.79,11.09,11.09,0,0,0-4.07-.43,10.37,10.37,0,0,0-6.11,2.08,6.07,6.07,0,0,0-2.3,5,6.5,6.5,0,0,0,.85,3.31,5.85,5.85,0,0,0,2.54,2.34,8.44,8.44,0,0,0,4.31.73c3.32-.19,5.7-1.43,7.15-3.62a3.93,3.93,0,0,0,.6,1.94c.46.61,1.41.86,2.86.71a4.82,4.82,0,0,0,2.56-1,4.74,4.74,0,0,0,1.44-2.62,22.2,22.2,0,0,0,.44-5,40.49,40.49,0,0,0-.35-5.45A19,19,0,0,0,74.58,43.44ZM67.15,56a3.83,3.83,0,0,1-1.29.81,5.27,5.27,0,0,1-1.51.36,3.34,3.34,0,0,1-2-.39,1.45,1.45,0,0,1-.76-1.29,1.9,1.9,0,0,1,.85-1.55,4.13,4.13,0,0,1,2.28-.75,5.51,5.51,0,0,1,1.48.07,2.29,2.29,0,0,1,1.1.5,1.38,1.38,0,0,1,.41,1.05A1.61,1.61,0,0,1,67.15,56Z"/><path class="cls-9" d="M94,35.65a3.88,3.88,0,0,0-2.71,1.53A8.62,8.62,0,0,0,90.19,41c-.08.77-.23,1.79-.41,3s-.37,2.54-.59,3.92-.45,2.69-.68,3.95l-.15,0c-.17-1.17-.39-2.46-.67-3.88s-.55-2.77-.84-4.07-.54-2.38-.76-3.21a6.07,6.07,0,0,0-1.59-3.23,3.75,3.75,0,0,0-3.12-.66,4.19,4.19,0,0,0-3.18,1.81,8.06,8.06,0,0,0-1,4.29,21.91,21.91,0,0,0,.4,4,30.41,30.41,0,0,0,1.13,4.36,24.48,24.48,0,0,0,1.87,4.13,9.4,9.4,0,0,0,3.27,3.6,6,6,0,0,0,3.9.64,8.19,8.19,0,0,0,3.39-1.3,11.09,11.09,0,0,0,2.72-2.71,21.82,21.82,0,0,0,2.19-3.9,30.15,30.15,0,0,0,1.32-3.73,31.69,31.69,0,0,0,.9-4,24.59,24.59,0,0,0,.32-3.77c0-1.87-.41-3.17-1.22-3.91A3.86,3.86,0,0,0,94,35.65Z"/><path class="cls-9" d="M121.2,45.72a3,3,0,0,0-1.38-.13,6.43,6.43,0,0,0-2.06.74c-.72.4-1.55.82-2.5,1.25a12.9,12.9,0,0,1-3.44,1,6.23,6.23,0,0,1-3.27-.13,1.85,1.85,0,0,1-1.12-1.59c.45,0,.92,0,1.44,0a17.13,17.13,0,0,0,2.62-.24,15.59,15.59,0,0,0,5.13-1.72,10,10,0,0,0,3.48-3.11,7.28,7.28,0,0,0,1.25-4.14,5,5,0,0,0-2.09-4.34q-2.1-1.45-6.58-.74a16.53,16.53,0,0,0-6.74,2.63,14.49,14.49,0,0,0-4.67,5.17,14.91,14.91,0,0,0-1.7,7.21,10.69,10.69,0,0,0,1.21,5.33,6.31,6.31,0,0,0,4,2.89,17.33,17.33,0,0,0,7.32,0,23,23,0,0,0,6-1.69,10.29,10.29,0,0,0,3.65-2.6,4.87,4.87,0,0,0,1.23-3.13,3,3,0,0,0-.49-1.84A2.48,2.48,0,0,0,121.2,45.72Zm-13-5.56a6,6,0,0,1,1.66-1.44,6.22,6.22,0,0,1,2.19-.8,2.15,2.15,0,0,1,1.64.26,1.43,1.43,0,0,1,.6,1.25A3.08,3.08,0,0,1,113,41.78a6.33,6.33,0,0,1-3.1,1.39,2.67,2.67,0,0,1-1.7-.17,1.23,1.23,0,0,1-.62-1.17A2.72,2.72,0,0,1,108.2,40.16Z"/><path class="cls-9" d="M141.78,23.05a6,6,0,0,0-3.38,1.22,3.55,3.55,0,0,0-1.29,2.89,3,3,0,0,0,1.07,2.37,4.23,4.23,0,0,0,3.23.76,6,6,0,0,0,3.43-1.21,3.59,3.59,0,0,0,.25-5.19A4,4,0,0,0,141.78,23.05Z"/><path class="cls-9" d="M142.19,31.34q-2.35.19-3.81,3.26t-1.46,9.09q0,4.91,1,6.76a2.83,2.83,0,0,0,3,1.69,4.59,4.59,0,0,0,3.91-2.94q1.29-2.73,1.29-8.75c0-3.26-.35-5.62-1-7.07S143.41,31.25,142.19,31.34Z"/><path class="cls-9" d="M132.78,44.66a8.29,8.29,0,0,0-1.14.24c.24-.94.48-1.92.67-3,.29-1.54.52-3.12.69-4.72a40.51,40.51,0,0,0,.26-4.53,34.14,34.14,0,0,0-.18-3.6,22.63,22.63,0,0,0-.49-2.89,3.73,3.73,0,0,0-1.31-2.26,3.15,3.15,0,0,0-2.24-.45,3.65,3.65,0,0,0-2.13,1,7.41,7.41,0,0,0-1.57,2.61,17.93,17.93,0,0,0-.76,3.15c-.24,1.39-.42,2.92-.56,4.58s-.21,3.29-.21,4.88c0,2.67.1,4.93.28,6.78a16.7,16.7,0,0,0,.88,4.26,3.63,3.63,0,0,0,1.64,2,4.89,4.89,0,0,0,2.77.29A9.34,9.34,0,0,0,132.8,52a7.1,7.1,0,0,0,2.33-2,4.3,4.3,0,0,0,.86-2.54,2.76,2.76,0,0,0-.84-2.28A3.13,3.13,0,0,0,132.78,44.66Z"/><path class="cls-9" d="M166.73,29.41a6.5,6.5,0,0,0-4.22-1.63A6,6,0,0,0,158.63,29a7.43,7.43,0,0,0-2.42,3.14c0-.16,0-.33,0-.49a4.76,4.76,0,0,0-.73-2.87,3,3,0,0,0-2.6-.94,3.74,3.74,0,0,0-3.25,1.86,11.87,11.87,0,0,0-1.49,4.89c-.13,1.07-.23,2.27-.32,3.58s-.16,2.62-.21,3.91-.07,2.47-.07,3.52c0,2,.39,3.47,1.16,4.29a4.28,4.28,0,0,0,3.43,1.17,4,4,0,0,0,3-1.21A6.28,6.28,0,0,0,156.46,46c0-.6.09-1.34.13-2.23s.07-1.77.11-2.67.09-1.64.17-2.24a5.81,5.81,0,0,1,.93-2.72,2.07,2.07,0,0,1,1.72-1q1.83,0,1.83,3.12,0,1-.09,2.46c-.06,1-.13,2-.21,3s-.11,1.9-.11,2.65a5,5,0,0,0,.92,3.18,3.39,3.39,0,0,0,2.63,1.26,4.82,4.82,0,0,0,2.65-.52,4,4,0,0,0,1.72-1.93,9.86,9.86,0,0,0,.67-2.24,27.48,27.48,0,0,0,.41-3.08c.1-1.14.15-2.29.15-3.46a20.1,20.1,0,0,0-.84-6.11A9.32,9.32,0,0,0,166.73,29.41Z"/><path class="cls-9" d="M194.22,49.3A4.67,4.67,0,0,0,193,47.87a4.2,4.2,0,0,0-1.38-.75,4.89,4.89,0,0,0-2.06-.16c-.72.09-1.56.15-2.5.2a13.45,13.45,0,0,1-3.44-.37,8.27,8.27,0,0,1-3.27-1.33,2.82,2.82,0,0,1-1.12-2c.45.19.92.37,1.44.54a24.59,24.59,0,0,0,2.62.71,15,15,0,0,0,5.13.32,5.67,5.67,0,0,0,3.48-1.6,5,5,0,0,0,1.25-3.57,7.84,7.84,0,0,0-2.09-5.28,13.77,13.77,0,0,0-13.32-3.23,9,9,0,0,0-4.67,3.73,12.28,12.28,0,0,0-1.7,6.73,12.57,12.57,0,0,0,1.21,5.66,9.89,9.89,0,0,0,3.95,4.08,24.27,24.27,0,0,0,7.32,2.58,25.15,25.15,0,0,0,6,.73,6.37,6.37,0,0,0,3.64-1,3,3,0,0,0,1.23-2.55A4.08,4.08,0,0,0,194.22,49.3ZM180,37.07a3.53,3.53,0,0,1,1.66-.84,4.76,4.76,0,0,1,2.19,0,3,3,0,0,1,1.64.9,2.16,2.16,0,0,1,.6,1.48,1.94,1.94,0,0,1-1.31,1.85,5.2,5.2,0,0,1-3.1.22,3.49,3.49,0,0,1-1.7-.78,1.79,1.79,0,0,1-.62-1.38A1.9,1.9,0,0,1,180,37.07Z"/></g></g></svg>